<svg viewBox="0 0 33.53 26.63" xmlns="http://www.w3.org/2000/svg" xmlns:xlink="http://www.w3.org/1999/xlink" id="Camada_1" overflow="hidden"><defs></defs><path d="M12.98 0 12.98 5.4C10.48 6.9 8.85 9.06 8.09 11.87 12.66 11.87 14.94 14.29 14.94 19.15 14.94 24.01 12.43 26.64 7.41 26.64 2.39 26.64 0 23.67 0 17.74 0 8.52 4.33 2.61 12.98 0ZM31.57 0 31.57 5.4C29.07 6.9 27.46 9.06 26.72 11.87 31.26 11.87 33.53 14.29 33.53 19.15 33.53 24.01 31.02 26.64 26 26.64 20.98 26.64 18.6 23.68 18.6 17.75 18.6 8.56 22.93 2.65 31.58 0.01Z" stroke-width="0" fill="#BE9C6D"/></svg>